<?xml version="1.0" encoding="utf-8"?>
<!-- Generator: Adobe Illustrator 27.8.0, SVG Export Plug-In . SVG Version: 6.00 Build 0)  -->
<svg version="1.1" id="Ebene_1" xmlns="http://www.w3.org/2000/svg" xmlns:xlink="http://www.w3.org/1999/xlink" x="0px" y="0px"
	 viewBox="0 0 399.7 453.5" style="enable-background:new 0 0 399.7 453.5;" xml:space="preserve">
<style type="text/css">
	.st0{fill:#FFFFFF;}
</style>
<g>
	<path class="st0" d="M87.1,394.5c-0.9-1.3-3.1-11.3-4.1-16.1c-0.3-1.4-0.5-2.5-0.7-3.1c-4.1-17.7-16.2-27.5-34-27.5
		c-18.2,0-33,15.1-33.1,33.7c0,19,14,33.4,33.4,34.3c0.5,0,1,0,1.5,0c10.1,0,15.3-5.1,19.9-9.6l0.8-0.8l-11.9-13l-0.4,0.3
		c-4.8,3.6-10.5,4.2-15.4,1.7c-5-2.5-8.3-7.7-8.3-12.9c0-3.9,1.6-7.8,4.4-10.6c2.7-2.7,6.2-4.2,9.9-4.2c9.3,0,12.3,6.2,15.4,14.9
		c0.9,2.6,1.9,6.2,2.9,10.1c1.2,4.8,2.5,9.8,3.9,13.3c2.6,6.6,12.9,10.8,19.4,9.7l0.5-0.1l0.1-18.2l-0.7,0.1
		C89.5,396.8,88.2,396,87.1,394.5z"/>
	<path class="st0" d="M128.7,347.8c-0.1,0-0.2,0-0.3,0c-17.4,0.1-31.9,12.7-33.2,28.7v38.1h18.4l0-32.5c1.2-10.4,6.9-16.2,15.5-15.8
		c8.3,0.3,13.3,5.9,14.5,16v32.4h18.4l0-37.5C161,359.8,147.2,347.8,128.7,347.8z"/>
	<path class="st0" d="M269.3,347c-8.7,0-17,3.4-23.2,9.7c-6.4,6.4-9.9,15-9.9,24c0.1,19.5,14.4,34.2,33.4,34.3
		c6.4,0,8.3-0.8,12.4-2.8l1.3-0.6l-7.9-16.2l-0.6,0.3c-4.8,2.5-8.8,1.3-11.4-0.2c-4.7-2.8-8-8.6-8.1-14.2c0-4,1.5-7.8,4.5-10.8
		c2.8-2.9,6.6-4.5,10.4-4.5c9.5,0,15.4,8.1,15.4,15.7c0,2.5-0.1,5.6-0.1,9c-0.1,7-0.3,15,0.1,18.8c-0.3,3.7-4.1,8.9-9.6,11
		c-4.3,1.6-11,1.9-18.8-5.6l-0.4-0.4l-0.4,0.3c-6.1,4.9-12.9,11.4-12.9,11.5l-0.4,0.4l0.4,0.4c2.7,2.9,12.6,12.2,27.8,12.2
		c0.1,0,0.2,0,0.3,0c15.1-0.1,31.1-10.3,32.4-29.6v-29.3C303.9,361.1,289.3,347,269.3,347z"/>
	<path class="st0" d="M380.1,394.5c-0.9-1.3-3.1-11.3-4.1-16.1c-0.3-1.4-0.5-2.5-0.7-3.1c-4.1-17.7-16.2-27.5-34-27.5
		c-18.2,0-33,15.1-33.1,33.7c-0.1,19,14,33.4,33.4,34.3c0.5,0,1,0,1.5,0c10.1,0,15.3-5.1,19.9-9.6l0.8-0.8l-11.9-13l-0.4,0.3
		c-4.8,3.6-10.4,4.2-15.4,1.7c-5-2.5-8.3-7.7-8.3-12.9c0-3.9,1.5-7.6,4.2-10.4c2.7-2.8,6.3-4.4,10.1-4.4c9.3,0,12.3,6.2,15.4,14.9
		c0.9,2.6,1.8,6.2,2.8,10c1.2,4.8,2.5,9.8,3.9,13.3c2.6,6.6,12.9,10.8,19.4,9.7l0.5-0.1l0.1-18.2l-0.7,0.1
		C382.5,396.8,381.1,396,380.1,394.5z"/>
	<path class="st0" d="M214.9,381.5c-1.2,10.2-6.7,15.8-15.6,15.9c0,0-0.1,0-0.1,0c-8.1,0-13.2-5.7-14.4-16V349h-18.4l0,37.5
		c1.2,17.3,14.8,29.3,33.2,29.3c0.2,0,0.4,0,0.5,0c17.4-0.2,31.9-12.8,33.2-28.7V349h-18.4L214.9,381.5z"/>
	<path class="st0" d="M16.1,14.2v330.7h368.3V14.2H16.1z M380.8,339.6h-15.4c-14.7-0.6-28.9-4.5-41.1-14.9
		c-9.6-8.2-15.5-21.5-19-37.5l-22.1-100.1c0,13-2.4,21.1-6.8,32.5c-4.6,12-8,17.3-16,26.4l40.7,31.7c-22.9,34.6-69.1,63.2-123,62.8
		C84.9,340,18.9,266.5,19.8,178C20.6,90.8,89.1,18.3,176.3,18.3c90.9,0,146.7,57.7,162.7,148l16.6,83.5c3.7,14.1,4.3,22.7,10.4,28.2
		c4.5,4.1,8.7,4.7,14.7,4.9V339.6z"/>
	<path class="st0" d="M250.5,180.6h-19.8c-0.3,44.7-16.4,79.8-44.6,97.9c9.8-1.5,19.8-7,29.3-16.1C236,242.8,250,210.1,250.5,180.6z
		"/>
	<path class="st0" d="M253.4,177.7h12.3c-0.2-26.6-13.4-54.7-35.5-75.3c-7-6.5-14.3-11.7-21.7-15.6c3.2,2.3,6.4,5,9.5,8
		C239.2,115.5,253,147.8,253.4,177.7z"/>
	<path class="st0" d="M230.6,177.7h19.8c-0.4-28.7-14.2-61-34.5-80.7c-10.2-9.9-21-15.8-31.5-17.2
		C212.7,96.7,230.2,133.5,230.6,177.7z"/>
	<path class="st0" d="M177,277.7v-97.1h-46.9C130.5,225.9,147.5,261,177,277.7z"/>
	<path class="st0" d="M226,89.6c5,3.2,9.9,6.9,14.5,11.2c22.3,20.4,35.7,49.1,36.1,76.9h3.4C279.4,139.5,257.7,106.4,226,89.6z"/>
	<path class="st0" d="M227.7,180.7h-47.8v97.9c0.1,0,0.2,0,0.4,0C210.2,261.9,227.4,226.4,227.7,180.7z"/>
	<path class="st0" d="M179.9,80.6v97.1h47.8C227.2,133,209,96.1,179.9,80.6z"/>
	<path class="st0" d="M238.5,103c-8.1-7.5-17-13.3-26.1-17.4c6.7,3.8,13.4,8.8,19.8,14.7c22.7,21.1,36.3,50,36.5,77.4h4.9
		C273.2,150.7,260.2,122.9,238.5,103z"/>
	<path class="st0" d="M127.1,180.6H77.6c0.8,54.2,44.1,98,98.1,99.7C145.2,263.1,127.5,227.1,127.1,180.6z"/>
	<path class="st0" d="M240.8,256.5c-7,6.5-14.6,11.8-22.4,15.9c35.8-15.2,61-50.5,61.6-91.7h-3.4
		C276.1,207.9,262.8,236.1,240.8,256.5z"/>
	<path class="st0" d="M175.6,78c-54,1.7-97.2,45.5-98,99.7h49.5C127.5,132.1,145.9,94.3,175.6,78z"/>
	<path class="st0" d="M228.6,261.2c-2.9,2.5-5.8,4.9-8.7,6.9c6.5-3.7,12.9-8.4,18.9-13.9c21.4-19.8,34.4-47.2,34.9-73.7h-5
		C267.9,209.3,252.6,240.1,228.6,261.2z"/>
	<path class="st0" d="M265.7,180.6h-12.3c-0.5,30.2-14.9,63.7-36,84c-2.6,2.5-5.3,4.8-8,6.8c5.8-3.2,11.6-7.3,17.3-12.4
		C245.1,242.8,264.8,213.8,265.7,180.6z"/>
	<path class="st0" d="M130.1,177.7H177V80.6C148.3,96.4,130.4,133.2,130.1,177.7z"/>
</g>
</svg>
